<svg xmlns="http://www.w3.org/2000/svg" xmlns:xlink="http://www.w3.org/1999/xlink" width="462.857" height="453" viewBox="0 0 462.857 453"><defs><style>.a{fill:none;}.b{clip-path:url(#a);}.c{fill:#e23b42;}</style><clipPath id="a"><rect class="a" width="462.857" height="453"/></clipPath></defs><g class="b"><path class="c" d="M437.009,162.053a17.516,17.516,0,0,1,21.983,13.722,232.487,232.487,0,0,1,3.074,23.3c.591,7.085.836,14.19.785,21.283l-.008,1.33-.049,1.329-.1,2.659-.2,5.316-.105,2.656-.227,2.651-.471,5.3A233.083,233.083,0,0,1,236.42,452.88a226.864,226.864,0,0,1-41.58-2.529,230.49,230.49,0,0,1-78.253-26.858A228.257,228.257,0,0,1,82.527,400,229.673,229.673,0,0,1,12.664,299.777a226.121,226.121,0,0,1-9.927-39.756A232.224,232.224,0,0,1,.056,219.258l.2-5.1.1-2.55c.034-.85.055-1.7.147-2.546l.913-10.166c.436-3.373.936-6.739,1.4-10.105.2-1.688.579-3.35.886-5.021l.965-5.006A223.171,223.171,0,0,1,240.672.636l4.978.448,2.487.224c.414.041.83.067,1.243.12l1.237.175L260.5,3.01,270.3,4.9c.82.14,1.624.358,2.432.553l2.423.594L280,7.236A220.9,220.9,0,0,1,381.7,66.589,219.056,219.056,0,0,0,279.2,10.464l-4.8-1.036L272,8.909c-.8-.169-1.6-.361-2.407-.476l-9.683-1.589L250.17,5.736,248.952,5.6c-.406-.041-.815-.054-1.223-.083l-2.446-.151-4.89-.3a218.453,218.453,0,0,0-77.1,10.06A215.856,215.856,0,0,0,44.487,109.6a213.243,213.243,0,0,0-26.749,71.678c-8.985,50.381.694,103.708,27.307,146.862a211.858,211.858,0,0,0,50.03,56.35,207.478,207.478,0,0,0,102.937,42.8,203.079,203.079,0,0,0,37.386,1.224,207.857,207.857,0,0,0,72.079-17.38A206.378,206.378,0,0,0,410.553,309.481a202.438,202.438,0,0,0,17.979-70.659l.279-4.565.136-2.281.019-2.288.045-4.574.026-2.285.013-1.142-.027-1.143c-.129-6.1-.508-12.178-1.186-18.221a197.891,197.891,0,0,0-3.191-19.847,17.467,17.467,0,0,1,12.36-20.422"/></g></svg>